#!OML:ASF F:\VICON\USERDATA\INSTALL\rory3\rory3.ASF
:FULLY-SPECIFIED
:DEGREES
2268
root -0.0531528 17.3676 -1.26727 26.37 -0.363482 0.515736
lowerback 13.5791 -1.06613 -0.714441
upperback -2.80229 -1.57093 -0.178673
thorax -10.6789 -0.709919 0.564503
lowerneck -7.72909 -17.2854 -20.1912
upperneck -1.10698 -27.674 46.8131
head 13.6833 -13.1426 16.3292
rclavicle 4.96962e-015 -1.19271e-015
rhumerus 43.3828 -50.8367 -144.029
rradius 14.6865
rwrist 145.628
rhand -54.0824 56.7231
rfingers 7.12502
rthumb -26.5022 28.5566
lclavicle 4.96962e-015 -1.19271e-015
lhumerus 116.921 58.2754 223.588
lradius 15.6861
lwrist -159.574
lhand -52.9431 36.8023
lfingers 7.12502
lthumb -25.4112 65.1287
rfemur -39.122 12.837 11.1416
rtibia 23.7591
rfoot -9.19637 -13.9099
rtoes -27.7453
lfemur -39.5295 -12.797 -10.2532
ltibia 24.2274
lfoot -10.4025 10.8799
ltoes -25.3109
2269
root -0.0493868 17.3654 -1.27051 26.3506 -0.29805 0.447129
lowerback 13.562 -1.06373 -0.751535
upperback -2.80283 -1.57717 -0.208645
thorax -10.6693 -0.711791 0.554024
lowerneck -7.523 -17.2651 -20.1108
upperneck -0.854838 -27.7997 46.8461
head 13.7948 -13.2135 16.3556
rclavicle 4.07509e-015 -2.5842e-015
rhumerus 43.6936 -51.038 -144.367
rradius 14.6012
rwrist 145.692
rhand -53.9489 56.8334
rfingers 7.12502
rthumb -26.3744 28.6477
lclavicle 4.07509e-015 -2.5842e-015
lhumerus 116.22 58.5554 222.742
lradius 15.6956
lwrist -159.167
lhand -53.0218 37.0579
lfingers 7.12502
lthumb -25.4867 65.3735
rfemur -39.0973 12.7786 11.2511
rtibia 23.7476
rfoot -9.24765 -13.8961
rtoes -27.7033
lfemur -39.6151 -12.792 -10.18
ltibia 24.3908
lfoot -10.5339 10.8053
ltoes -24.7474
2270
root -0.0473402 17.3625 -1.27525 26.3593 -0.250488 0.397186
lowerback 13.535 -1.04786 -0.898114
upperback -2.80298 -1.57803 -0.176498
thorax -10.6486 -0.7019 0.671217
lowerneck -7.32802 -17.2626 -20.0867
upperneck -0.63914 -27.9164 46.8373
head 13.8839 -13.2794 16.3613
rclavicle 9.93923e-017 -9.93923e-016
rhumerus 43.8978 -51.1502 -144.618
rradius 14.6295
rwrist 145.74
rhand -53.8739 57.0724
rfingers 7.12502
rthumb -26.3026 28.876
lclavicle 9.93923e-017 -9.93923e-016
lhumerus 115.611 58.7166 222.111
lradius 15.7924
lwrist -158.87
lhand -52.9855 36.9859
lfingers 7.12502
lthumb -25.4519 65.3064
rfemur -39.1233 12.8255 11.2619
rtibia 23.7557
rfoot -9.43013 -13.943
rtoes -27.2142
lfemur -39.7479 -12.8056 -10.1045
ltibia 24.5613
lfoot -10.6343 10.8
ltoes -24.4648
2271
root -0.0454312 17.3566 -1.2817 26.3469 -0.248094 0.400147
lowerback 13.5681 -1.01769 -1.0767
upperback -2.82127 -1.56973 -0.177372
thorax -10.6839 -0.686223 0.770295
lowerneck -7.15233 -17.2666 -20.0754
upperneck -0.37659 -28.0639 46.8268
head 14.015 -13.3544 16.3662
rclavicle 1.63997e-014 7.95139e-016
rhumerus 44.1579 -51.2967 -144.885
rradius 14.6553
rwrist 145.912
rhand -53.8771 56.8708
rfingers 7.12502
rthumb -26.3056 28.6748
lclavicle 1.63997e-014 7.95139e-016
lhumerus 115.443 58.7219 222.009
lradius 15.876
lwrist -158.889
lhand -53.0385 36.7325
lfingers 7.12502
lthumb -25.5027 65.0458
rfemur -39.1156 12.8561 11.2156
rtibia 23.7888
rfoot -9.69429 -13.9635
rtoes -26.1216
lfemur -39.8466 -12.843 -10.0846
ltibia 24.7105
lfoot -10.7228 10.7787
ltoes -24.1062
2272
root -0.0419096 17.3548 -1.28567 26.3165 -0.212195 0.35673
lowerback 13.6755 -0.99367 -1.16339
upperback -2.89468 -1.55765 -0.198071
thorax -10.8278 -0.673895 0.797537
lowerneck -6.93544 -17.2336 -20.0276
upperneck -0.0273149 -28.1817 46.7731
head 14.1346 -13.4129 16.3719
rclavicle -1.64991e-014 -3.57812e-015
rhumerus 44.3281 -51.6089 -145.085
rradius 14.6624
rwrist 145.989
rhand -53.9324 56.7415
rfingers 7.12502
rthumb -26.3586 28.5534
lclavicle -1.64991e-014 -3.57812e-015
lhumerus 115.681 58.6965 222.338
lradius 15.9095
lwrist -159.097
lhand -52.993 36.4127
lfingers 7.12502
lthumb -25.4591 64.7323
rfemur -39.0836 12.8361 11.278
rtibia 23.8077
rfoot -9.66868 -13.9559
rtoes -26.0852
lfemur -39.9113 -12.8291 -10.059
ltibia 24.859
lfoot -10.7008 10.7955
ltoes -24.3902
2273
root -0.0393009 17.3536 -1.28733 26.3207 -0.175429 0.274987
lowerback 13.7167 -0.970664 -1.23533
upperback -2.95471 -1.54057 -0.192089
thorax -10.9175 -0.659676 0.842507
lowerneck -6.79879 -17.2211 -20.0323
upperneck 0.329338 -28.3227 46.7057
head 14.295 -13.4727 16.3662
rclavicle 2.18663e-015 4.37326e-015
rhumerus 44.4109 -51.8844 -145.251
rradius 14.7364
rwrist 146.018
rhand -53.941 56.7845
rfingers 7.12502
rthumb -26.3669 28.5977
lclavicle 2.18663e-015 4.37326e-015
lhumerus 115.87 58.6977 222.538
lradius 15.8165
lwrist -159.146
lhand -52.9766 36.4491
lfingers 7.12502
lthumb -25.4433 64.7709
rfemur -39.0976 12.8344 11.3697
rtibia 23.799
rfoot -9.60056 -13.9168
rtoes -26.4884
lfemur -40.0052 -12.8275 -9.96648
ltibia 25.0038
lfoot -10.6889 10.8314
ltoes -24.5664
2274
root -0.0379305 17.3511 -1.28971 26.3034 -0.122219 0.114641
lowerback 13.6947 -0.948766 -1.26254
upperback -2.92594 -1.50989 -0.140756
thorax -10.8708 -0.641913 0.905752
lowerneck -6.80934 -17.248 -20.0078
upperneck 0.650168 -28.4895 46.6188
head 14.4681 -13.5236 16.3027
rclavicle 8.74653e-015 7.15625e-015
rhumerus 44.627 -51.9851 -145.522
rradius 14.7831
rwrist 146.144
rhand -53.9132 57.0268
rfingers 7.12502
rthumb -26.3402 28.836
lclavicle 8.74653e-015 7.15625e-015
lhumerus 115.462 58.7431 222.109
lradius 15.7387
lwrist -158.939
lhand -52.8405 36.7744
lfingers 7.12502
lthumb -25.3129 65.1147
rfemur -39.0679 12.8723 11.5401
rtibia 23.7571
rfoot -9.64837 -13.8765
rtoes -26.4282
lfemur -40.0805 -12.7765 -9.7993
ltibia 25.1453
lfoot -10.757 10.8317
ltoes -24.743
2275
root -0.0349019 17.3492 -1.29287 26.2571 -0.0410277 -0.0638085
lowerback 13.7187 -0.949012 -1.21285
upperback -2.90297 -1.49652 -0.0945346
thorax -10.8594 -0.637125 0.92501
lowerneck -6.78302 -17.2589 -19.9563
upperneck 0.964524 -28.6289 46.5239
head 14.6081 -13.566 16.2413
rclavicle 1.35174e-014 -2.38542e-015
rhumerus 44.9097 -52.0691 -145.816
rradius 14.7218
rwrist 146.427
rhand -54.0781 57.3231
rfingers 7.12502
rthumb -26.4981 29.156
lclavicle 1.35174e-014 -2.38542e-015
lhumerus 115.142 58.7581 221.78
lradius 15.7343
lwrist -158.798
lhand -52.849 36.8561
lfingers 7.12502
lthumb -25.3211 65.1952
rfemur -39.0137 12.8594 11.7782
rtibia 23.7024
rfoot -9.35393 -13.8596
rtoes -27.1231
lfemur -40.1244 -12.7933 -9.59292
ltibia 25.2821
lfoot -10.7889 10.8878
ltoes -25.0939
2276
root -0.0300844 17.3498 -1.29464 26.2238 -0.0261829 -0.136514
lowerback 13.7136 -0.915732 -1.25659
upperback -2.89522 -1.45933 -0.0922955
thorax -10.8475 -0.616672 0.9435
lowerneck -6.6568 -17.2808 -19.9557
upperneck 1.20179 -28.7835 46.4963
head 14.7441 -13.639 16.2264
rclavicle -2.38542e-015 -1.19271e-015
rhumerus 45.1966 -52.262 -146.052
rradius 14.7011
rwrist 146.649
rhand -54.2427 57.5606
rfingers 7.12502
rthumb -26.6556 29.4173
lclavicle -2.38542e-015 -1.19271e-015
lhumerus 114.777 58.8245 221.484
lradius 15.7461
lwrist -158.661
lhand -52.7807 37.2382
lfingers 7.12502
lthumb -25.2557 65.5866
rfemur -38.9465 12.7589 11.9155
rtibia 23.6145
rfoot -9.12793 -13.7446
rtoes -27.7428
lfemur -40.1727 -12.8372 -9.51235
ltibia 25.4336
lfoot -11.0071 10.8936
ltoes -24.0442
2277
root -0.0250133 17.3485 -1.29631 26.2465 -0.0728567 -0.163097
lowerback 13.5916 -0.877797 -1.35676
upperback -2.86098 -1.42562 -0.109141
thorax -10.7364 -0.596361 0.971144
lowerneck -6.53005 -17.2676 -19.9798
upperneck 1.3635 -28.8692 46.5367
head 14.8586 -13.6941 16.2821
rclavicle -2.54444e-014 -7.15625e-015
rhumerus 45.4564 -52.3858 -146.317
rradius 14.6999
rwrist 146.405
rhand -54.278 59.7317
rfingers 7.12502
rthumb -26.6894 31.5935
lclavicle -2.54444e-014 -7.15625e-015
lhumerus 113.997 58.9605 220.717
lradius 15.7954
lwrist -158.315
lhand -52.7013 37.6898
lfingers 7.12502
lthumb -25.1795 66.0489
rfemur -38.9286 12.6815 11.9512
rtibia 23.5252
rfoot -9.14237 -13.622
rtoes -27.9545
lfemur -40.2695 -12.8328 -9.49777
ltibia 25.583
lfoot -11.2706 10.8567
ltoes -22.6955
2278
root -0.022764 17.3487 -1.29972 26.2741 -0.0175082 -0.291326
lowerback 13.5268 -0.883076 -1.33507
upperback -2.85008 -1.43092 -0.140697
thorax -10.6873 -0.602159 0.924363
lowerneck -6.46708 -17.2403 -19.8602
upperneck 1.65409 -28.9722 46.5162
head 14.9881 -13.7319 16.2759
rclavicle -1.39149e-014 -9.14409e-015
rhumerus 45.7514 -52.4927 -146.783
rradius 14.7389
rwrist 146.253
rhand -54.6855 62.0765
rfingers 7.12502
rthumb -27.0793 33.9984
lclavicle -1.39149e-014 -9.14409e-015
lhumerus 113.611 59.0064 220.201
lradius 15.7387
lwrist -158.189
lhand -52.6723 37.634
lfingers 7.12502
lthumb -25.1518 65.997
rfemur -38.9398 12.6779 12.0931
rtibia 23.4434
rfoot -9.04276 -13.607
rtoes -28.3075
lfemur -40.4003 -12.849 -9.32713
ltibia 25.7401
lfoot -11.1675 10.9432
ltoes -23.8955
2279
root -0.0225325 17.3471 -1.30405 26.3039 0.0408357 -0.395728
lowerback 13.5245 -0.882273 -1.36043
upperback -2.88583 -1.43695 -0.161354
thorax -10.7257 -0.603657 0.918058
lowerneck -6.32565 -17.2103 -19.824
upperneck 1.94099 -29.0612 46.465
head 15.099 -13.7752 16.283
rclavicle 1.55052e-014 0
rhumerus 46.0519 -52.6403 -147.204
rradius 14.7416
rwrist 146.858
rhand -55.3518 60.1688
rfingers 7.12502
rthumb -27.7166 32.1916
lclavicle 1.55052e-014 0
lhumerus 113.771 58.9346 220.319
lradius 15.6764
lwrist -158.413
lhand -52.6403 37.497
lfingers 7.12502
lthumb -25.1212 65.8643
rfemur -38.9673 12.7008 12.1981
rtibia 23.3712
rfoot -8.93917 -13.5924
rtoes -28.6283
lfemur -40.5648 -12.8375 -9.17586
ltibia 25.9279
lfoot -11.0876 10.968
ltoes -24.6415
2280
root -0.0217194 17.342 -1.30807 26.3218 0.0579882 -0.492488
lowerback 13.5072 -0.823168 -1.42763
upperback -2.88962 -1.36857 -0.153523
thorax -10.7197 -0.566549 0.948888
lowerneck -6.21625 -17.2434 -19.8193
upperneck 2.14971 -29.208 46.414
head 15.2131 -13.8414 16.2457
rclavicle -2.22639e-014 -1.98785e-015
rhumerus 46.3848 -52.8487 -147.514
rradius 14.7604
rwrist 147.242
rhand -55.3742 59.5589
rfingers 7.12502
rthumb -27.738 31.5851
lclavicle -2.22639e-014 -1.98785e-015
lhumerus 113.434 58.9441 220.109
lradius 15.6801
lwrist -158.401
lhand -52.4638 37.659
lfingers 7.12502
lthumb -24.9521 66.0499
rfemur -38.9733 12.7701 12.2453
rtibia 23.3125
rfoot -8.98679 -13.5667
rtoes -28.0263
lfemur -40.7004 -12.7668 -9.08341
ltibia 26.1192
lfoot -11.0964 10.9785
ltoes -25.2337
2281
root -0.0209944 17.3356 -1.31229 26.3143 0.0245598 -0.593154
lowerback 13.409 -0.770423 -1.55695
upperback -2.80757 -1.31366 -0.116642
thorax -10.5682 -0.532976 1.04676
lowerneck -6.28363 -17.2698 -19.7686
upperneck 2.37349 -29.3225 46.3306
head 15.3335 -13.8656 16.173
rclavicle 1.23246e-014 1.98785e-015
rhumerus 46.6325 -52.8992 -147.794
rradius 14.8723
rwrist 147.329
rhand -55.0862 61.7104
rfingers 7.12502
rthumb -27.4626 33.6925
lclavicle 1.23246e-014 1.98785e-015
lhumerus 112.662 59.0005 219.375
lradius 15.6853
lwrist -158.049
lhand -52.4988 37.5365
lfingers 7.12502
lthumb -24.9856 65.9227
rfemur -38.9503 12.8545 12.3018
rtibia 23.2905
rfoot -9.21527 -13.5279
rtoes -27.0878
lfemur -40.7825 -12.6824 -9.00783
ltibia 26.2903
lfoot -11.142 10.9848
ltoes -25.1344
2282
root -0.0192792 17.3349 -1.31606 26.2462 0.0373482 -0.700859
lowerback 13.4111 -0.739844 -1.61056
upperback -2.71885 -1.28074 -0.117262
thorax -10.4706 -0.515509 1.06812
lowerneck -6.41063 -17.2856 -19.6623
upperneck 2.59692 -29.4438 46.3067
head 15.49 -13.8884 16.1236
rclavicle -7.95139e-015 -4.77083e-015
rhumerus 47.0561 -52.9446 -148.219
rradius 14.8935
rwrist 147.462
rhand -54.8941 62.5567
rfingers 7.12502
rthumb -27.2789 34.5099
lclavicle -7.95139e-015 -4.77083e-015
lhumerus 112.416 58.8958 219.188
lradius 15.6916
lwrist -158.078
lhand -52.5807 37.4185
lfingers 7.12502
lthumb -25.064 65.7938
rfemur -38.854 12.8106 12.4785
rtibia 23.2797
rfoot -9.35205 -13.4363
rtoes -26.9913
lfemur -40.7882 -12.6287 -8.93077
ltibia 26.4337
lfoot -11.1701 10.9893
ltoes -25.3375
